<svg width="70" height="11" viewBox="0 0 70 11" fill="none" xmlns="http://www.w3.org/2000/svg">
<path d="M0 4.91255H0.909229V4.00332H1.81846V3.09409H2.72769V2.18486H3.63692V3.09409H2.72769V4.00332H1.81846V4.91255H0.909229V5.82178H1.81846V6.73101H2.72769V7.64024H3.63692V8.54947H2.72769V7.64024H1.81846V6.73101H0.909229V5.82178H0V4.91255Z" fill="#2E2E2E"/>
<path d="M6.56666 4.00332H7.47589V3.09409H10.2036V1.27563H11.1128V9.4587H7.47589V8.54947H6.56666V4.00332ZM7.47589 8.54947H10.2036V4.00332H7.47589V8.54947Z" fill="#2E2E2E"/>
<path d="M14.039 4.00332H14.9482V3.09409H17.6759V4.00332H18.5851V6.73101H14.9482V8.54947H18.5851V9.4587H14.9482V8.54947H14.039V4.00332ZM14.9482 5.82178H17.6759V4.00332H14.9482V5.82178Z" fill="#2E2E2E"/>
<path d="M21.5113 3.09409H22.4206V7.64024H23.3298V8.54947H24.239V7.64024H25.1482V3.09409H26.0575V7.64024H25.1482V8.54947H24.239V9.4587H23.3298V8.54947H22.4206V7.64024H21.5113V3.09409Z" fill="#2E2E2E"/>
<path d="M28.9837 3.09409H31.7113V4.00332H32.6206V3.09409H34.439V4.00332H35.3483V9.4587H34.439V4.00332H32.6206V9.4587H31.7113V4.00332H29.8929V9.4587H28.9837V3.09409Z" fill="#2E2E2E"/>
<path d="M38.2851 3.09409H41.0128V4.00332H40.1036V8.54947H41.0128V9.4587H38.2851V8.54947H39.1943V4.00332H38.2851V3.09409ZM39.1943 1.27563H40.1036V2.18486H39.1943V1.27563Z" fill="#2E2E2E"/>
<path d="M43.9461 4.00332H44.8553V3.09409H48.4922V4.00332H44.8553V5.82178H47.583V6.73101H48.4922V8.54947H47.583V9.4587H43.9461V8.54947H47.583V6.73101H44.8553V5.82178H43.9461V4.00332Z" fill="#2E2E2E"/>
<path d="M51.4184 1.27563H52.3276V3.09409H55.0553V4.00332H55.9646V9.4587H55.0553V4.00332H52.3276V9.4587H51.4184V1.27563Z" fill="#2E2E2E"/>
<path d="M59.8 3.09409H62.5277V4.00332H63.4369V9.4587H59.8V8.54947H58.8907V6.73101H59.8V5.82178H62.5277V4.00332H59.8V3.09409ZM59.8 8.54947H62.5277V6.73101H59.8V8.54947Z" fill="#2E2E2E"/>
<path d="M66.3631 2.18486H67.2723V3.09409H68.1815V4.00332H69.0908V4.91255H70V5.82178H69.0908V6.73101H68.1815V7.64024H67.2723V8.54947H66.3631V7.64024H67.2723V6.73101H68.1815V5.82178H69.0908V4.91255H68.1815V4.00332H67.2723V3.09409H66.3631V2.18486Z" fill="#2E2E2E"/>
</svg>
